<svg xmlns="http://www.w3.org/2000/svg" viewBox="0 0 40 40">
  <path d="M36.3,32.1c-2.6,0.7-5.5-0.9-6.8-3.5l-2.9-6.2H20h-6.6l-2.9,6.2c-1.2,2.6-4.1,4.2-6.8,3.5 c-2.6-0.7-4.2-3.4-3.5-6L2,19.3C2,19.2,2,19.1,2.1,19l1.5-5.8c0.8-3,3.9-5.4,6.9-5.4H20h9.5c3,0,6.1,2.4,6.9,5.4l1.5,5.8 c0,0.1,0.1,0.2,0.1,0.3l1.8,6.8C40.5,28.7,39,31.4,36.3,32.1z M16.2,15c0-0.5-0.4-0.9-0.9-0.9h-2.5v-2.5c0-0.5-0.4-0.9-0.9-0.9H11 c-0.5,0-0.9,0.4-0.9,0.9v2.5H7.5c-0.5,0-0.9,0.4-0.9,0.9v0.8c0,0.5,0.4,0.9,0.9,0.9h2.6v2.6c0,0.5,0.4,0.9,0.9,0.9h0.8 c0.5,0,0.9-0.4,0.9-0.9v-2.6h2.5c0.5,0,0.9-0.4,0.9-0.9V15z M25.4,13.8c-0.9,0-1.7,0.7-1.7,1.7s0.7,1.7,1.7,1.7 c0.9,0,1.7-0.7,1.7-1.7S26.3,13.8,25.4,13.8z M28.7,10.5c-0.9,0-1.7,0.7-1.7,1.7c0,0.9,0.7,1.7,1.7,1.7c0.9,0,1.7-0.7,1.7-1.7 C30.3,11.2,29.6,10.5,28.7,10.5z M28.7,17c-0.9,0-1.7,0.7-1.7,1.7c0,0.9,0.7,1.7,1.7,1.7c0.9,0,1.7-0.7,1.7-1.7 C30.3,17.8,29.6,17,28.7,17z M31.9,13.8c-0.9,0-1.7,0.7-1.7,1.7s0.7,1.7,1.7,1.7c0.9,0,1.7-0.7,1.7-1.7S32.9,13.8,31.9,13.8z" fill="currentColor"/>
</svg>
