<svg xmlns="http://www.w3.org/2000/svg" width="512" height="512" viewBox="0 0 512 512">
<g>
<path d="M 0.00 0.00 L 512.00 0.00 L 395.75 0.09 C323.68,0.15 280.70,0.53 282.66,1.10 C288.22,2.71 294.48,9.99 308.99,31.74 C323.10,52.88 323.16,52.99 322.00,56.49 C321.36,58.43 318.83,62.48 316.37,65.51 C313.90,68.53 312.20,71.00 312.59,71.00 C312.97,71.00 315.60,69.02 318.44,66.60 L 323.59 62.20 L 325.80 68.35 C327.02,71.73 331.61,81.03 336.00,89.00 C340.39,96.97 345.44,107.32 347.22,112.00 C350.42,120.36 350.47,120.76 350.43,137.00 C350.40,150.78 349.78,157.56 346.70,178.13 C342.70,204.79 342.45,208.86 344.07,220.57 C347.76,247.05 363.36,277.76 387.90,306.82 C393.94,313.96 395.03,315.93 397.82,324.73 C399.66,330.56 402.67,337.25 405.14,341.06 C411.36,350.62 416.48,361.40 419.57,371.39 C422.26,380.09 422.28,380.32 420.41,381.69 C417.40,383.89 408.35,386.21 398.00,387.44 C387.10,388.73 387.81,389.49 401.43,391.09 C407.73,391.84 412.74,391.87 417.09,391.20 C420.62,390.66 423.69,390.40 423.93,390.62 C424.66,391.31 425.85,401.18 425.93,407.18 C425.99,412.38 425.75,413.05 423.04,414.97 C418.49,418.21 410.15,420.71 399.37,422.07 C391.69,423.03 390.09,423.49 391.96,424.18 C398.59,426.63 416.66,426.83 423.90,424.53 C425.86,423.91 426.00,424.23 425.98,429.18 C425.93,442.98 420.57,462.47 412.71,477.44 C407.07,488.17 396.91,498.56 387.86,502.85 C384.20,504.58 380.77,506.00 380.23,506.00 C379.70,506.00 378.98,504.30 378.65,502.22 C377.93,497.72 375.75,494.42 374.15,495.41 C373.49,495.81 373.00,498.66 373.00,502.06 C373.00,507.93 372.97,508.00 370.13,508.00 C367.58,508.00 367.19,507.57 366.65,504.25 C365.87,499.37 363.10,495.24 361.89,497.15 C361.42,497.89 361.02,500.41 361.02,502.75 C361.00,506.66 360.79,507.00 358.39,507.00 C354.56,507.00 344.64,504.26 338.26,501.43 C332.69,498.97 332.66,498.97 322.59,500.44 C297.25,504.15 270.57,505.04 246.94,502.97 L 235.38 501.95 L 228.73 504.97 C225.07,506.63 219.02,508.86 215.29,509.92 L 208.50 511.86 L 360.25 511.93 L 512.00 512.00 L 198.52 512.00 C201.65,512.00 202.00,511.73 201.99,509.25 C201.97,505.08 200.88,501.87 199.62,502.29 C199.01,502.50 197.72,504.77 196.77,507.33 L 195.04 512.00 L 0.00 512.00 L 96.25 511.92 C149.19,511.88 191.94,511.62 191.25,511.34 C190.56,511.06 189.99,509.63 189.99,508.17 C189.97,504.47 188.94,501.00 187.87,501.00 C187.37,501.00 186.22,502.58 185.30,504.50 C184.38,506.42 183.33,508.00 182.96,508.00 C182.60,508.00 180.43,506.65 178.15,505.00 C163.47,494.36 155.03,466.92 155.08,430.00 C155.10,416.67 156.08,403.58 157.14,402.53 C157.44,402.23 160.49,403.43 163.92,405.20 C174.90,410.86 186.78,409.29 195.87,400.98 C197.72,399.29 199.06,397.72 198.84,397.51 C198.63,397.29 195.18,398.28 191.18,399.71 L 183.90 402.30 L 180.65 399.15 C176.60,395.22 175.66,395.18 176.50,399.00 C177.11,401.79 176.96,402.00 174.27,402.00 C172.36,402.00 170.40,400.98 168.50,399.00 C165.14,395.49 164.00,395.24 164.00,398.00 C164.00,399.98 163.98,399.99 158.86,398.04 C156.03,396.96 152.60,395.05 151.24,393.79 C143.23,386.40 132.99,367.26 130.41,354.87 C128.46,345.56 128.52,327.74 130.52,317.19 C134.56,295.92 148.90,266.90 165.32,246.76 C167.90,243.61 170.00,240.86 170.00,240.65 C170.00,240.45 167.14,238.43 163.65,236.18 C143.27,222.99 130.72,198.29 127.45,164.90 L 126.80 158.30 L 131.65 157.72 C136.43,157.14 144.61,154.28 143.80,153.47 C143.57,153.24 140.71,153.48 137.44,154.01 C127.11,155.67 126.65,155.30 120.33,140.48 C113.05,123.43 102.99,93.30 102.28,86.45 C100.31,67.35 118.62,57.73 153.95,59.32 C161.40,59.65 171.10,60.44 175.50,61.08 L 183.50 62.24 L 183.18 69.95 C182.97,74.86 183.46,79.99 184.51,84.08 C186.58,92.13 192.26,104.22 192.79,101.71 C192.99,100.72 191.97,92.78 190.51,84.06 C187.08,63.56 187.21,62.30 193.00,59.35 C195.48,58.09 197.89,57.18 198.37,57.32 C198.85,57.46 200.34,61.39 201.67,66.04 C205.11,78.01 213.77,95.56 215.43,93.91 C216.64,92.69 210.94,73.60 206.66,64.56 L 202.21 55.17 L 209.81 53.11 C217.32,51.07 217.44,51.06 219.46,52.96 C220.58,54.02 225.77,61.66 231.00,69.93 C236.23,78.21 240.79,84.98 241.16,84.99 C242.43,85.01 238.81,73.40 235.32,66.26 C233.37,62.28 229.97,56.98 227.77,54.48 L 223.77 49.93 L 227.54 44.21 C243.47,20.07 260.12,3.63 271.33,0.96 C273.07,0.54 212.74,0.16 137.25,0.10 ZM 398.60 304.15 C398.96,307.37 399.05,310.00 398.79,310.00 C397.73,310.00 379.82,286.86 374.02,278.00 C366.90,267.13 358.09,249.52 355.01,240.00 C348.77,220.73 348.38,207.51 353.14,176.00 C355.79,158.45 356.39,151.38 356.44,137.50 C356.49,121.97 356.28,119.85 354.01,113.00 C352.64,108.88 349.15,101.00 346.24,95.50 C332.47,69.42 329.74,63.10 329.23,56.03 C328.62,47.46 330.07,43.07 334.99,38.63 C339.80,34.28 344.24,33.01 354.64,33.01 C364.67,33.00 373.41,35.54 380.98,40.65 C404.32,56.44 415.93,84.90 418.94,133.72 L 419.85 148.50 L 417.42 150.70 C414.61,153.26 409.10,154.99 403.75,154.99 C401.66,155.00 400.00,155.49 400.00,156.12 C400.00,156.89 403.09,157.11 410.11,156.83 L 420.23 156.42 L 419.62 161.46 C419.29,164.23 419.01,168.44 419.01,170.81 C419.00,174.91 418.80,175.20 414.75,176.96 C412.41,177.97 408.02,179.14 405.00,179.55 C399.78,180.27 399.65,180.35 402.50,181.21 C404.15,181.70 408.36,181.87 411.84,181.58 L 418.19 181.06 L 417.50 187.28 C416.33,197.83 412.11,219.63 407.48,239.00 C400.48,268.28 397.23,292.11 398.60,304.15 ZM 190.21 375.98 C195.10,379.25 197.10,380.00 200.86,379.98 C211.52,379.93 228.03,370.97 235.97,360.92 C241.30,354.17 244.00,346.52 243.98,338.21 C243.96,329.14 243.15,328.03 238.86,331.25 C234.50,334.51 229.00,337.28 229.00,336.21 C229.00,335.75 230.34,334.09 231.98,332.52 C233.62,330.95 236.13,327.98 237.55,325.92 C240.04,322.34 240.08,322.05 238.56,319.12 C235.88,313.94 217.12,290.96 208.47,282.25 C199.87,273.61 195.46,271.00 189.44,271.00 C184.37,271.00 180.45,273.63 176.37,279.76 C171.93,286.46 169.80,291.29 166.39,302.50 C164.02,310.31 163.65,313.28 163.58,325.00 C163.50,339.33 164.42,343.80 169.63,354.21 C172.75,360.43 182.72,370.98 190.21,375.98 ZM 123.00 328.41 C123.00,332.72 122.22,332.77 115.50,328.92 C112.75,327.34 106.11,324.19 100.74,321.91 C90.34,317.50 86.00,314.72 86.00,312.46 C86.00,309.37 92.51,303.93 102.10,299.00 C112.65,293.58 115.99,290.17 116.00,284.83 C116.00,283.36 114.61,276.43 112.90,269.43 C108.60,251.73 109.87,247.00 118.90,247.00 C123.12,247.01 124.28,247.63 133.00,254.57 C138.23,258.73 143.08,262.71 143.80,263.40 C144.86,264.44 143.99,266.84 139.08,276.51 C135.77,283.02 131.71,292.10 130.05,296.68 C126.76,305.75 123.00,322.70 123.00,328.41 ZM 218.50 259.38 C227.84,261.06 244.40,261.34 254.82,259.99 C261.00,259.19 262.77,258.50 266.19,255.57 C271.37,251.13 277.71,249.00 285.71,249.00 C293.36,249.00 298.09,246.85 309.72,238.09 C317.28,232.39 324.38,225.03 328.58,218.55 C330.05,216.29 330.14,215.75 329.00,216.23 C328.17,216.58 322.22,219.13 315.78,221.90 C290.13,232.91 266.89,239.81 218.00,250.94 C212.77,252.13 207.15,253.70 205.50,254.41 L 202.50 255.72 L 206.50 256.83 C208.70,257.44 214.10,258.59 218.50,259.38 ZM 275.17 296.40 C280.69,299.15 286.89,299.75 291.50,298.00 L 294.13 297.00 L 290.69 292.75 C285.23,286.02 281.22,276.92 283.75,277.03 C284.16,277.05 285.70,279.05 287.17,281.47 C289.84,285.86 297.10,292.00 299.64,292.00 C302.09,292.00 306.09,284.50 306.68,278.78 C307.12,274.51 306.78,272.29 305.07,268.43 C300.97,259.15 294.76,255.06 284.71,255.02 C269.91,254.97 259.75,267.90 263.44,282.11 C265.13,288.64 268.96,293.30 275.17,296.40 ZM 309.20 450.03 C311.49,451.69 314.57,453.00 316.18,453.00 C323.07,453.00 329.87,447.50 332.07,440.16 C333.72,434.66 332.96,431.88 329.10,429.28 L 325.70 427.00 L 328.38 427.00 C333.88,427.00 342.00,421.82 342.00,418.31 C342.00,416.65 335.46,416.57 327.64,418.14 C324.51,418.77 321.71,419.04 321.41,418.74 C321.11,418.44 321.40,416.39 322.06,414.19 C322.72,411.98 322.97,409.02 322.61,407.59 C322.03,405.26 321.50,405.00 317.23,405.02 C310.05,405.06 304.98,407.88 299.65,414.81 C297.09,418.13 295.00,421.11 295.00,421.42 C295.00,421.74 296.54,422.00 298.43,422.00 C301.95,422.00 305.18,419.17 306.53,414.91 C307.22,412.72 311.89,410.00 314.95,410.00 C318.02,410.00 317.43,411.57 313.42,414.05 C310.81,415.66 309.97,416.78 310.33,418.17 C310.72,419.63 308.79,421.64 301.97,426.92 C297.09,430.69 293.38,434.05 293.72,434.38 C294.06,434.72 296.28,435.00 298.67,435.00 L 303.00 435.00 L 303.00 439.07 C303.00,444.31 304.18,446.39 309.20,450.03 ZM 302.50 377.00 C304.26,379.85 305.48,375.27 306.04,363.73 C306.83,347.38 307.07,347.00 317.44,345.60 C319.61,345.30 322.31,344.12 323.44,342.97 L 325.50 340.88 L 323.14 338.94 C320.48,336.76 315.01,336.40 310.14,338.10 C308.40,338.71 306.29,338.94 305.46,338.62 C304.13,338.11 304.18,337.55 305.83,334.27 C306.88,332.20 308.04,328.81 308.41,326.75 L 309.09 323.00 L 304.63 323.00 C296.63,323.00 281.92,330.23 284.52,332.90 C285.08,333.47 288.88,334.42 292.96,334.99 C297.04,335.57 300.55,336.21 300.75,336.42 C300.96,336.62 299.74,338.37 298.05,340.29 C295.51,343.18 293.91,343.98 288.88,344.86 C280.02,346.42 277.59,349.20 282.22,352.44 C284.75,354.21 290.88,354.47 295.94,353.02 C297.83,352.48 299.60,352.26 299.87,352.54 C300.15,352.82 300.69,358.17 301.08,364.44 C301.46,370.70 302.10,376.35 302.50,377.00 ZM 259.00 455.17 C259.00,463.97 259.27,466.00 260.45,466.00 C262.56,466.00 264.02,459.56 263.38,453.08 C262.54,444.65 263.64,443.71 275.14,443.02 C283.92,442.49 289.00,441.05 289.00,439.07 C289.00,437.46 285.84,437.00 274.78,437.00 L 263.72 437.00 L 264.41 430.33 C264.78,426.66 265.28,423.35 265.52,422.97 C265.76,422.59 267.99,421.70 270.47,421.01 C275.61,419.57 276.39,417.53 272.14,416.68 C270.57,416.36 267.87,414.92 266.15,413.47 L 263.02 410.84 L 260.38 412.92 C258.52,414.38 256.28,415.00 252.87,415.00 C250.19,415.00 248.00,415.37 248.00,415.82 C248.00,416.27 250.70,417.92 254.00,419.50 L 260.00 422.37 L 260.00 428.98 C260.00,432.80 259.49,436.11 258.80,436.80 C258.05,437.55 254.22,438.01 248.55,438.03 C240.41,438.06 239.69,438.21 241.43,439.52 C242.49,440.32 246.87,441.73 251.18,442.66 L 259.00 444.34 ZM 264.31 404.05 C268.20,406.42 268.48,406.42 273.60,404.09 C279.65,401.35 282.50,396.79 282.50,389.85 C282.50,385.78 281.99,383.65 280.66,382.18 C278.91,380.24 277.52,379.86 266.89,378.43 C262.89,377.90 262.07,377.37 260.66,374.41 C258.88,370.67 257.24,370.04 256.38,372.75 C253.54,381.74 249.75,386.10 242.99,388.12 C238.57,389.45 238.72,390.57 243.60,392.60 C246.53,393.83 247.45,393.80 250.98,392.39 C253.19,391.51 256.10,389.48 257.44,387.89 C259.39,385.57 260.68,385.00 263.97,385.00 C266.22,385.00 269.61,385.65 271.50,386.44 C274.79,387.81 274.89,388.01 273.86,390.96 C272.56,394.71 270.88,395.68 264.17,396.57 C261.33,396.95 259.00,397.45 259.00,397.69 C259.00,399.28 261.61,402.40 264.31,404.05 ZM 304.35 478.07 C306.63,479.11 309.62,479.96 311.00,479.96 C314.81,479.96 321.64,476.48 323.55,473.56 C326.10,469.68 325.95,463.51 323.25,460.80 C321.12,458.67 320.76,458.63 313.89,459.81 C302.36,461.79 297.93,465.86 299.51,473.03 C300.04,475.48 301.13,476.61 304.35,478.07 ZM 324.00 371.36 C327.30,373.69 332.59,372.87 335.95,369.51 C339.47,365.99 339.53,359.26 336.08,355.58 C334.14,353.52 332.71,353.00 328.96,353.00 C322.62,353.00 318.99,356.43 319.03,362.39 C319.07,366.79 320.05,368.57 324.00,371.36 ZM 343.77 471.49 C341.84,475.23 341.83,475.39 343.61,473.99 C344.65,473.17 345.73,472.26 346.00,471.97 C347.87,470.01 355.20,464.91 358.73,463.12 C368.21,458.32 381.98,457.00 395.50,459.60 L 398.50 460.18 L 395.50 458.09 C386.81,452.06 370.51,451.25 359.91,456.32 C353.47,459.40 346.74,465.72 343.77,471.49 ZM 258.40 368.42 C260.57,369.50 264.63,369.96 271.94,369.98 C281.30,370.00 282.61,369.78 284.69,367.82 L 287.01 365.64 L 284.83 363.32 C282.71,361.07 282.17,361.00 265.58,361.04 L 248.50 361.08 L 251.90 363.99 C253.77,365.59 256.69,367.58 258.40,368.42 ZM 230.72 179.67 L 227.50 180.85 L 230.80 180.92 C236.93,181.07 241.05,177.39 243.45,169.64 C243.92,168.12 244.65,167.90 247.46,168.43 C251.24,169.14 256.63,167.35 258.87,164.65 C260.59,162.59 260.14,162.58 256.04,164.63 C253.04,166.13 252.50,166.13 249.42,164.66 C246.24,163.15 246.09,162.83 246.29,158.12 C246.40,155.40 246.16,152.82 245.73,152.40 C245.31,151.98 243.74,152.62 242.23,153.83 C239.49,156.03 235.13,158.34 231.61,159.45 C229.83,160.01 229.82,160.14 231.44,161.93 C232.38,162.97 234.49,164.37 236.14,165.06 C238.95,166.22 239.09,166.53 238.47,170.40 C237.71,175.13 235.31,178.01 230.72,179.67 ZM 168.30 472.67 C167.64,474.39 167.74,474.40 170.05,472.90 C175.17,469.57 183.34,467.62 192.00,467.65 C200.00,467.68 202.26,468.18 214.50,472.58 C215.97,473.11 215.61,472.35 213.12,469.72 C203.81,459.86 185.66,458.63 173.44,467.04 C171.00,468.72 169.00,470.26 169.00,470.47 C169.00,470.67 168.68,471.66 168.30,472.67 ZM 329.00 406.13 C329.00,408.34 336.36,405.12 337.38,402.46 C339.26,397.56 336.45,391.00 332.47,391.00 C329.18,391.00 302.03,400.43 302.88,401.28 C304.51,402.91 312.41,402.18 321.36,399.58 C326.24,398.16 330.60,397.00 331.07,397.00 C331.53,397.00 331.26,398.86 330.46,401.13 C329.66,403.39 329.00,405.64 329.00,406.13 ZM 285.28 464.25 C289.75,466.70 293.63,466.46 296.55,463.55 C300.93,459.16 299.73,458.09 287.64,455.61 C283.31,454.72 277.11,452.58 273.85,450.84 C269.88,448.72 267.59,448.01 266.92,448.68 C265.88,449.72 278.87,460.73 285.28,464.25 ZM 198.39 326.04 C195.22,327.25 195.07,327.23 191.78,325.44 C186.38,322.51 185.38,316.41 189.65,312.45 C193.48,308.90 198.10,309.15 201.41,313.08 C202.83,314.77 204.00,316.82 204.00,317.63 C204.00,320.43 200.89,325.09 198.39,326.04 ZM 263.57 132.44 C263.93,133.85 264.51,135.00 264.86,135.00 C265.21,135.00 267.28,131.58 269.46,127.40 C273.91,118.85 278.51,114.44 284.75,112.74 C287.09,112.11 289.00,111.23 289.00,110.79 C289.00,109.36 284.17,109.97 278.38,112.13 C268.09,115.98 261.66,124.80 263.57,132.44 ZM 169.00 161.17 C169.00,161.59 170.59,160.86 172.53,159.55 C178.06,155.79 184.39,154.85 193.92,156.37 C198.41,157.09 202.30,157.33 202.55,156.92 C202.81,156.50 201.34,154.77 199.28,153.08 C196.09,150.45 194.73,150.00 190.02,150.02 C183.51,150.05 176.94,152.72 172.25,157.25 C170.46,158.98 169.00,160.74 169.00,161.17 ZM 316.68 473.39 C312.72,474.45 304.00,474.07 304.00,472.84 C304.00,471.27 308.89,463.00 309.82,463.00 C310.22,463.00 311.52,463.68 312.71,464.51 C314.70,465.91 314.88,465.86 315.18,463.84 C315.62,460.85 317.62,460.42 319.01,463.01 C320.77,466.31 319.34,472.67 316.68,473.39 ZM 235.44 458.56 C238.72,461.00 243.54,460.34 247.43,456.93 C251.14,453.67 255.58,447.24 254.71,446.38 C254.43,446.09 252.24,446.86 249.86,448.07 C247.47,449.29 243.30,451.04 240.57,451.97 C234.52,454.02 232.62,456.46 235.44,458.56 ZM 321.12 441.41 C318.43,443.39 316.02,445.00 315.77,445.00 C315.52,445.00 314.57,444.18 313.65,443.17 C309.82,438.93 313.25,434.00 320.02,434.00 C323.33,434.00 326.00,435.39 326.00,437.11 C326.00,437.51 323.80,439.44 321.12,441.41 ZM 311.23 392.33 C313.85,393.38 316.81,392.95 317.39,391.42 C318.37,388.87 318.09,385.49 316.80,384.20 C314.95,382.35 307.00,382.63 307.00,384.55 C307.00,386.73 309.71,391.72 311.23,392.33 ZM 351.30 66.78 C356.15,72.02 359.14,65.69 354.45,60.12 C351.69,56.85 348.19,54.48 347.35,55.32 C346.39,56.28 349.24,64.56 351.30,66.78 ZM 363.28 61.74 C366.24,63.09 367.00,62.48 367.00,58.79 C367.00,56.44 366.00,54.77 362.83,51.85 C356.45,45.95 356.00,46.61 359.58,56.61 C360.41,58.92 362.03,61.16 363.28,61.74 ZM 280.00 144.38 C280.00,144.80 281.24,144.24 282.75,143.14 C286.37,140.52 300.68,126.00 299.65,126.00 C299.21,126.00 295.62,128.45 291.68,131.44 C285.34,136.25 280.00,142.17 280.00,144.38 ZM 269.09 433.61 C270.65,435.49 270.97,435.40 275.00,431.98 L 278.50 429.01 L 276.00 427.03 C272.68,424.39 272.53,424.43 270.07,428.61 C268.42,431.40 268.20,432.53 269.09,433.61 ZM 177.50 199.53 L 177.47 199.55 C176.77,200.13 176.28,200.52 176.34,200.64 C176.48,200.91 179.38,199.77 188.82,196.06 L 189.00 195.99 C200.82,191.34 202.90,190.00 198.32,190.00 C195.27,190.00 181.37,196.36 177.50,199.53 ZM 170.00 177.89 C170.00,178.81 195.37,178.01 196.33,177.07 C197.95,175.46 187.66,174.87 178.91,176.07 C174.01,176.74 170.00,177.56 170.00,177.89 ZM 295.82 412.46 C299.95,414.71 300.13,414.38 297.86,408.75 C296.70,405.86 295.53,402.71 295.26,401.75 C294.47,398.93 293.27,399.73 292.56,403.54 C291.68,408.25 292.57,410.70 295.82,412.46 ZM 286.95 150.97 C285.05,152.59 284.12,153.94 284.89,153.96 C286.72,154.01 307.29,142.60 306.08,142.19 C304.34,141.61 290.43,148.00 286.95,150.97 ZM 319.20 428.67 C316.62,429.35 313.66,429.93 312.63,429.96 C310.92,430.00 310.89,429.80 312.21,427.81 C314.70,424.06 316.44,423.49 320.92,424.97 C325.71,426.56 325.51,427.01 319.20,428.67 ZM 250.90 431.25 C254.38,435.19 256.01,435.33 255.98,431.69 C255.96,428.09 254.55,426.83 250.95,427.18 L 247.60 427.50 Z" fill="rgb(3,1,4)"/>
<path d="M 268.80 1.76 L 270.60 0.86 C271.22,0.89 271.47,0.93 271.33,0.96 C270.52,1.15 269.67,1.42 268.80,1.76 Z" fill="rgb(75,74,76)"/>
<path d="M 284.75 112.74 C278.54,114.43 273.96,118.80 269.53,127.27 C273.62,119.45 277.18,115.73 283.00,113.15 C286.25,111.71 286.33,111.57 284.12,111.21 C280.27,110.59 272.96,113.98 268.47,118.48 C267.91,119.03 267.40,119.60 266.93,120.16 C269.60,116.82 273.57,113.93 278.38,112.13 C284.17,109.97 289.00,109.36 289.00,110.79 C289.00,111.23 287.09,112.11 284.75,112.74 ZM 287.24 3.63 C291.54,6.49 293.31,8.53 303.22,23.22 C295.87,12.60 291.08,6.69 287.24,3.63 ZM 283.10 0.96 L 284.30 1.73 C283.74,1.46 283.20,1.25 282.66,1.10 C282.50,1.05 282.64,1.00 283.10,0.96 Z" fill="rgb(169,168,170)"/>
<path d="M 0.00 256.00 L 0.00 0.00 L 136.16 0.00 L 272.32 0.00 L 266.20 3.06 C255.41,8.45 241.06,23.73 227.54,44.21 L 223.77 49.93 L 227.77 54.48 C229.97,56.98 233.37,62.28 235.32,66.26 C238.81,73.40 242.43,85.01 241.16,84.99 C240.79,84.98 236.23,78.21 231.00,69.93 C225.77,61.66 220.58,54.02 219.46,52.96 C217.44,51.06 217.32,51.07 209.81,53.11 L 202.21 55.17 L 206.66 64.56 C210.94,73.60 216.64,92.69 215.43,93.91 C213.77,95.56 205.11,78.01 201.67,66.04 C200.34,61.39 198.85,57.46 198.37,57.32 C197.89,57.18 195.48,58.09 193.00,59.35 C187.21,62.30 187.08,63.56 190.51,84.06 C191.97,92.78 192.99,100.72 192.79,101.71 C192.26,104.22 186.58,92.13 184.51,84.08 C183.46,79.99 182.97,74.86 183.18,69.95 L 183.50 62.24 L 175.50 61.08 C171.10,60.44 161.40,59.65 153.95,59.32 C118.62,57.73 100.31,67.35 102.28,86.45 C102.99,93.30 113.05,123.43 120.33,140.48 C126.65,155.30 127.11,155.67 137.44,154.01 C140.71,153.48 143.57,153.24 143.80,153.47 C144.61,154.28 136.43,157.14 131.65,157.72 L 126.80 158.30 L 127.45 164.90 C130.72,198.29 143.27,222.99 163.65,236.18 C167.14,238.43 170.00,240.45 170.00,240.65 C170.00,240.86 167.90,243.61 165.32,246.76 C148.90,266.90 134.56,295.92 130.52,317.19 C128.52,327.74 128.46,345.56 130.41,354.87 C132.99,367.26 143.23,386.40 151.24,393.79 C152.60,395.05 156.03,396.96 158.86,398.04 C163.98,399.99 164.00,399.98 164.00,398.00 C164.00,395.24 165.14,395.49 168.50,399.00 C170.40,400.98 172.36,402.00 174.27,402.00 C176.96,402.00 177.11,401.79 176.50,399.00 C175.66,395.18 176.60,395.22 180.65,399.15 L 183.90 402.30 L 191.18 399.71 C195.18,398.28 198.63,397.29 198.84,397.51 C199.06,397.72 197.72,399.29 195.87,400.98 C186.78,409.29 174.90,410.86 163.92,405.20 C160.49,403.43 157.44,402.23 157.14,402.53 C156.08,403.58 155.10,416.67 155.08,430.00 C155.03,466.92 163.47,494.36 178.15,505.00 C180.43,506.65 182.60,508.00 182.96,508.00 C183.33,508.00 184.38,506.42 185.30,504.50 C186.22,502.58 187.37,501.00 187.87,501.00 C188.94,501.00 189.97,504.47 189.99,508.17 C189.99,509.63 190.56,511.06 191.25,511.34 C191.94,511.62 149.19,511.88 96.25,511.92 L 0.00 512.00 L 0.00 256.00 ZM 123.00 328.41 C123.00,322.70 126.76,305.75 130.05,296.68 C131.71,292.10 135.77,283.02 139.08,276.51 C143.99,266.84 144.86,264.44 143.80,263.40 C143.08,262.71 138.23,258.73 133.00,254.57 C124.28,247.63 123.12,247.01 118.90,247.00 C109.87,247.00 108.60,251.73 112.90,269.43 C114.61,276.43 116.00,283.36 116.00,284.83 C115.99,290.17 112.65,293.58 102.10,299.00 C92.51,303.93 86.00,309.37 86.00,312.46 C86.00,314.72 90.34,317.50 100.74,321.91 C106.11,324.19 112.75,327.34 115.50,328.92 C122.22,332.77 123.00,332.72 123.00,328.41 ZM 196.77 507.33 C197.72,504.77 199.01,502.50 199.62,502.29 C200.88,501.87 201.97,505.08 201.99,509.25 C202.00,511.73 201.65,512.00 198.52,512.00 L 195.04 512.00 L 196.77 507.33 ZM 215.29 509.92 C219.02,508.86 225.07,506.63 228.73,504.97 L 235.38 501.95 L 246.94 502.97 C270.57,505.04 297.25,504.15 322.59,500.44 C332.66,498.97 332.69,498.97 338.26,501.43 C344.64,504.26 354.56,507.00 358.39,507.00 C360.79,507.00 361.00,506.66 361.02,502.75 C361.02,500.41 361.42,497.89 361.89,497.15 C363.10,495.24 365.87,499.37 366.65,504.25 C367.19,507.57 367.58,508.00 370.13,508.00 C372.97,508.00 373.00,507.93 373.00,502.06 C373.00,498.66 373.49,495.81 374.15,495.41 C375.75,494.42 377.93,497.72 378.65,502.22 C378.98,504.30 379.70,506.00 380.23,506.00 C380.77,506.00 384.20,504.58 387.86,502.85 C396.91,498.56 407.07,488.17 412.71,477.44 C420.57,462.47 425.93,442.98 425.98,429.18 C426.00,424.23 425.86,423.91 423.90,424.53 C416.66,426.83 398.59,426.63 391.96,424.18 C390.09,423.49 391.69,423.03 399.37,422.07 C410.15,420.71 418.49,418.21 423.04,414.97 C425.75,413.05 425.99,412.38 425.93,407.18 C425.85,401.18 424.66,391.31 423.93,390.62 C423.69,390.40 420.62,390.66 417.09,391.20 C412.74,391.87 407.73,391.84 401.43,391.09 C387.81,389.49 387.10,388.73 398.00,387.44 C408.35,386.21 417.40,383.89 420.41,381.69 C422.28,380.32 422.26,380.09 419.57,371.39 C416.48,361.40 411.36,350.62 405.14,341.06 C402.67,337.25 399.66,330.56 397.82,324.73 C395.03,315.93 393.94,313.96 387.90,306.82 C363.36,277.76 347.76,247.05 344.07,220.57 C342.45,208.86 342.70,204.79 346.70,178.13 C349.78,157.56 350.40,150.78 350.43,137.00 C350.47,120.76 350.42,120.36 347.22,112.00 C345.44,107.32 340.39,96.97 336.00,89.00 C331.61,81.03 327.02,71.73 325.80,68.35 L 323.59 62.20 L 318.44 66.60 C315.60,69.02 312.97,71.00 312.59,71.00 C312.20,71.00 313.90,68.53 316.37,65.51 C318.83,62.48 321.36,58.43 322.00,56.49 C323.16,52.99 323.11,52.89 308.94,31.74 C292.71,7.53 292.10,6.74 286.05,2.86 L 281.61 -0.00 L 396.80 -0.00 L 512.00 0.00 L 512.00 256.00 L 512.00 512.00 L 360.25 511.93 L 208.50 511.86 L 215.29 509.92 ZM 398.60 304.15 C397.23,292.11 400.48,268.28 407.48,239.00 C412.11,219.63 416.33,197.83 417.50,187.28 L 418.19 181.06 L 411.84 181.58 C408.36,181.87 404.15,181.70 402.50,181.21 C399.65,180.35 399.78,180.27 405.00,179.55 C408.02,179.14 412.41,177.97 414.75,176.96 C418.80,175.20 419.00,174.91 419.01,170.81 C419.01,168.44 419.29,164.23 419.62,161.46 L 420.23 156.42 L 410.11 156.83 C403.09,157.11 400.00,156.89 400.00,156.12 C400.00,155.49 401.66,155.00 403.75,154.99 C409.10,154.99 414.61,153.26 417.42,150.70 L 419.85 148.50 L 418.94 133.72 C415.93,84.90 404.32,56.44 380.98,40.65 C373.41,35.54 364.67,33.00 354.64,33.01 C344.24,33.01 339.80,34.28 334.99,38.63 C330.07,43.07 328.62,47.46 329.23,56.03 C329.74,63.10 332.47,69.42 346.24,95.50 C349.15,101.00 352.64,108.88 354.01,113.00 C356.28,119.85 356.49,121.97 356.44,137.50 C356.39,151.38 355.79,158.45 353.14,176.00 C348.38,207.51 348.77,220.73 355.01,240.00 C358.09,249.52 366.90,267.13 374.02,278.00 C379.82,286.86 397.73,310.00 398.79,310.00 C399.05,310.00 398.96,307.37 398.60,304.15 ZM 304.35 478.07 C301.13,476.61 300.04,475.48 299.51,473.03 C297.93,465.86 302.36,461.79 313.89,459.81 C320.76,458.63 321.12,458.67 323.25,460.80 C325.95,463.51 326.10,469.68 323.55,473.56 C321.64,476.48 314.81,479.96 311.00,479.96 C309.62,479.96 306.63,479.11 304.35,478.07 ZM 316.68 473.39 C319.34,472.67 320.77,466.31 319.01,463.01 C317.62,460.42 315.62,460.85 315.18,463.84 C314.88,465.86 314.70,465.91 312.71,464.51 C311.52,463.68 310.22,463.00 309.82,463.00 C308.89,463.00 304.00,471.27 304.00,472.84 C304.00,474.07 312.72,474.45 316.68,473.39 ZM 343.77 471.49 C346.74,465.72 353.47,459.40 359.91,456.32 C370.51,451.25 386.81,452.06 395.50,458.09 L 398.50 460.18 L 395.50 459.60 C381.98,457.00 368.21,458.32 358.73,463.12 C355.20,464.91 347.87,470.01 346.00,471.97 C345.73,472.26 344.65,473.17 343.61,473.99 C341.83,475.39 341.84,475.23 343.77,471.49 ZM 168.30 472.67 C168.68,471.66 169.00,470.67 169.00,470.47 C169.00,470.26 171.00,468.72 173.44,467.04 C185.66,458.63 203.81,459.86 213.12,469.72 C215.61,472.35 215.97,473.11 214.50,472.58 C202.26,468.18 200.00,467.68 192.00,467.65 C183.34,467.62 175.17,469.57 170.05,472.90 C167.74,474.40 167.64,474.39 168.30,472.67 ZM 259.00 455.17 L 259.00 444.34 L 251.18 442.66 C246.87,441.73 242.49,440.32 241.43,439.52 C239.69,438.21 240.41,438.06 248.55,438.03 C254.22,438.01 258.05,437.55 258.80,436.80 C259.49,436.11 260.00,432.80 260.00,428.98 L 260.00 422.37 L 254.00 419.50 C250.70,417.92 248.00,416.27 248.00,415.82 C248.00,415.37 250.19,415.00 252.87,415.00 C256.28,415.00 258.52,414.38 260.38,412.92 L 263.02 410.84 L 266.15 413.47 C267.87,414.92 270.57,416.36 272.14,416.68 C276.39,417.53 275.61,419.57 270.47,421.01 C267.99,421.70 265.76,422.59 265.52,422.97 C265.28,423.35 264.78,426.66 264.41,430.33 L 263.72 437.00 L 274.78 437.00 C285.84,437.00 289.00,437.46 289.00,439.07 C289.00,441.05 283.92,442.49 275.14,443.02 C263.64,443.71 262.54,444.65 263.38,453.08 C264.02,459.56 262.56,466.00 260.45,466.00 C259.27,466.00 259.00,463.97 259.00,455.17 ZM 285.28 464.25 C278.87,460.73 265.88,449.72 266.92,448.68 C267.59,448.01 269.88,448.72 273.85,450.84 C277.11,452.58 283.31,454.72 287.64,455.61 C299.73,458.09 300.93,459.16 296.55,463.55 C293.63,466.46 289.75,466.70 285.28,464.25 ZM 235.44 458.56 C232.62,456.46 234.52,454.02 240.57,451.97 C243.30,451.04 247.47,449.29 249.86,448.07 C252.24,446.86 254.43,446.09 254.71,446.38 C255.58,447.24 251.14,453.67 247.43,456.93 C243.54,460.34 238.72,461.00 235.44,458.56 ZM 309.20 450.03 C304.18,446.39 303.00,444.31 303.00,439.07 L 303.00 435.00 L 298.67 435.00 C296.28,435.00 294.06,434.72 293.72,434.38 C293.38,434.05 297.09,430.69 301.97,426.92 C308.79,421.64 310.72,419.63 310.33,418.17 C309.97,416.78 310.81,415.66 313.42,414.05 C317.43,411.57 318.02,410.00 314.95,410.00 C311.89,410.00 307.22,412.72 306.53,414.91 C305.18,419.17 301.95,422.00 298.43,422.00 C296.54,422.00 295.00,421.74 295.00,421.42 C295.00,421.11 297.09,418.13 299.65,414.81 C304.98,407.88 310.05,405.06 317.23,405.02 C321.50,405.00 322.03,405.26 322.61,407.59 C322.97,409.02 322.72,411.98 322.06,414.19 C321.40,416.39 321.11,418.44 321.41,418.74 C321.71,419.04 324.51,418.77 327.64,418.14 C335.46,416.57 342.00,416.65 342.00,418.31 C342.00,421.82 333.88,427.00 328.38,427.00 L 325.70 427.00 L 329.10 429.28 C332.96,431.88 333.72,434.66 332.07,440.16 C329.87,447.50 323.07,453.00 316.18,453.00 C314.57,453.00 311.49,451.69 309.20,450.03 ZM 321.12 441.41 C323.80,439.44 326.00,437.51 326.00,437.11 C326.00,435.39 323.33,434.00 320.02,434.00 C313.25,434.00 309.82,438.93 313.65,443.17 C314.57,444.18 315.52,445.00 315.77,445.00 C316.02,445.00 318.43,443.39 321.12,441.41 ZM 319.20 428.67 C325.51,427.01 325.71,426.56 320.92,424.97 C316.44,423.49 314.70,424.06 312.21,427.81 C310.89,429.80 310.92,430.00 312.63,429.96 C313.66,429.93 316.62,429.35 319.20,428.67 ZM 250.90 431.25 L 247.60 427.50 L 250.95 427.18 C254.55,426.83 255.96,428.09 255.98,431.69 C256.01,435.33 254.38,435.19 250.90,431.25 ZM 269.09 433.61 C268.20,432.53 268.42,431.40 270.07,428.61 C272.53,424.43 272.68,424.39 276.00,427.03 L 278.50 429.01 L 275.00 431.98 C270.97,435.40 270.65,435.49 269.09,433.61 ZM 295.82 412.46 C292.57,410.70 291.68,408.25 292.56,403.54 C293.27,399.73 294.47,398.93 295.26,401.75 C295.53,402.71 296.70,405.86 297.86,408.75 C300.13,414.38 299.95,414.71 295.82,412.46 ZM 329.00 406.13 C329.00,405.64 329.66,403.39 330.46,401.13 C331.26,398.86 331.53,397.00 331.07,397.00 C330.60,397.00 326.24,398.16 321.36,399.58 C312.41,402.18 304.51,402.91 302.88,401.28 C302.03,400.43 329.18,391.00 332.47,391.00 C336.45,391.00 339.26,397.56 337.38,402.46 C336.36,405.12 329.00,408.34 329.00,406.13 ZM 264.31 404.05 C261.61,402.40 259.00,399.28 259.00,397.69 C259.00,397.45 261.33,396.95 264.17,396.57 C270.88,395.68 272.56,394.71 273.86,390.96 C274.89,388.01 274.79,387.81 271.50,386.44 C269.61,385.65 266.22,385.00 263.97,385.00 C260.68,385.00 259.39,385.57 257.44,387.89 C256.10,389.48 253.19,391.51 250.98,392.39 C247.45,393.80 246.53,393.83 243.60,392.60 C238.72,390.57 238.57,389.45 242.99,388.12 C249.75,386.10 253.54,381.74 256.38,372.75 C257.24,370.04 258.88,370.67 260.66,374.41 C262.07,377.37 262.89,377.90 266.89,378.43 C277.52,379.86 278.91,380.24 280.66,382.18 C281.99,383.65 282.50,385.78 282.50,389.85 C282.50,396.79 279.65,401.35 273.60,404.09 C268.48,406.42 268.20,406.42 264.31,404.05 ZM 311.23 392.33 C309.71,391.72 307.00,386.73 307.00,384.55 C307.00,382.63 314.95,382.35 316.80,384.20 C318.09,385.49 318.37,388.87 317.39,391.42 C316.81,392.95 313.85,393.38 311.23,392.33 ZM 190.21 375.98 C182.72,370.98 172.75,360.43 169.63,354.21 C164.42,343.80 163.50,339.33 163.58,325.00 C163.65,313.28 164.02,310.31 166.39,302.50 C169.80,291.29 171.93,286.46 176.37,279.76 C180.45,273.63 184.37,271.00 189.44,271.00 C195.46,271.00 199.87,273.61 208.47,282.25 C217.12,290.96 235.88,313.94 238.56,319.12 C240.08,322.05 240.04,322.34 237.55,325.92 C236.13,327.98 233.62,330.95 231.98,332.52 C230.34,334.09 229.00,335.75 229.00,336.21 C229.00,337.28 234.50,334.51 238.86,331.25 C243.15,328.03 243.96,329.14 243.98,338.21 C244.00,346.52 241.30,354.17 235.97,360.92 C228.03,370.97 211.52,379.93 200.86,379.98 C197.10,380.00 195.10,379.25 190.21,375.98 ZM 198.39 326.04 C200.89,325.09 204.00,320.43 204.00,317.63 C204.00,316.82 202.83,314.77 201.41,313.08 C198.10,309.15 193.48,308.90 189.65,312.45 C185.38,316.41 186.38,322.51 191.78,325.44 C195.07,327.23 195.22,327.25 198.39,326.04 ZM 302.50 377.00 C302.10,376.35 301.46,370.70 301.08,364.44 C300.69,358.17 300.15,352.82 299.87,352.54 C299.60,352.26 297.83,352.48 295.94,353.02 C290.88,354.47 284.75,354.21 282.22,352.44 C277.59,349.20 280.02,346.42 288.88,344.86 C293.91,343.98 295.51,343.18 298.05,340.29 C299.74,338.37 300.96,336.62 300.75,336.42 C300.55,336.21 297.04,335.57 292.96,334.99 C288.88,334.42 285.08,333.47 284.52,332.90 C281.92,330.23 296.63,323.00 304.63,323.00 L 309.09 323.00 L 308.41 326.75 C308.04,328.81 306.88,332.20 305.83,334.27 C304.18,337.55 304.13,338.11 305.46,338.62 C306.29,338.94 308.40,338.71 310.14,338.10 C315.01,336.40 320.48,336.76 323.14,338.94 L 325.50 340.88 L 323.44 342.97 C322.31,344.12 319.61,345.30 317.44,345.60 C307.07,347.00 306.83,347.38 306.04,363.73 C305.48,375.27 304.26,379.85 302.50,377.00 ZM 324.00 371.36 C320.05,368.57 319.07,366.79 319.03,362.39 C318.99,356.43 322.62,353.00 328.96,353.00 C332.71,353.00 334.14,353.52 336.08,355.58 C339.53,359.26 339.47,365.99 335.95,369.51 C332.59,372.87 327.30,373.69 324.00,371.36 ZM 258.40 368.42 C256.69,367.58 253.77,365.59 251.90,363.99 L 248.50 361.08 L 265.58 361.04 C282.17,361.00 282.71,361.07 284.83,363.32 L 287.01 365.64 L 284.69 367.82 C282.61,369.78 281.30,370.00 271.94,369.98 C264.63,369.96 260.57,369.50 258.40,368.42 ZM 275.17 296.40 C268.96,293.30 265.13,288.64 263.44,282.11 C259.75,267.90 269.91,254.97 284.71,255.02 C294.76,255.06 300.97,259.15 305.07,268.43 C306.78,272.29 307.12,274.51 306.68,278.78 C306.09,284.50 302.09,292.00 299.64,292.00 C297.10,292.00 289.84,285.86 287.17,281.47 C285.70,279.05 284.16,277.05 283.75,277.03 C281.22,276.92 285.23,286.02 290.69,292.75 L 294.13 297.00 L 291.50 298.00 C286.89,299.75 280.69,299.15 275.17,296.40 ZM 218.50 259.38 C214.10,258.59 208.70,257.44 206.50,256.83 L 202.50 255.72 L 205.50 254.41 C207.15,253.70 212.77,252.13 218.00,250.94 C266.89,239.81 290.13,232.91 315.78,221.90 C322.22,219.13 328.17,216.58 329.00,216.23 C330.14,215.75 330.05,216.29 328.58,218.55 C324.38,225.03 317.28,232.39 309.72,238.09 C298.09,246.85 293.36,249.00 285.71,249.00 C277.71,249.00 271.37,251.13 266.19,255.57 C262.77,258.50 261.00,259.19 254.82,259.99 C244.40,261.34 227.84,261.06 218.50,259.38 ZM 177.50 199.53 C181.37,196.36 195.27,190.00 198.32,190.00 C202.90,190.00 200.82,191.34 189.00,195.99 C175.13,201.44 175.18,201.43 177.50,199.53 ZM 230.72 179.67 C235.31,178.01 237.71,175.13 238.47,170.40 C239.09,166.53 238.95,166.22 236.14,165.06 C234.49,164.37 232.38,162.97 231.44,161.93 C229.82,160.14 229.83,160.01 231.61,159.45 C235.13,158.34 239.49,156.03 242.23,153.83 C243.74,152.62 245.31,151.98 245.73,152.40 C246.16,152.82 246.40,155.40 246.29,158.12 C246.09,162.83 246.24,163.15 249.42,164.66 C252.50,166.13 253.04,166.13 256.04,164.63 C260.14,162.58 260.59,162.59 258.87,164.65 C256.63,167.35 251.24,169.14 247.46,168.43 C244.65,167.90 243.92,168.12 243.45,169.64 C241.05,177.39 236.93,181.07 230.80,180.92 L 227.50 180.85 L 230.72 179.67 ZM 170.00 177.89 C170.00,177.56 174.01,176.74 178.91,176.07 C187.66,174.87 197.95,175.46 196.33,177.07 C195.37,178.01 170.00,178.81 170.00,177.89 ZM 169.00 161.17 C169.00,160.74 170.46,158.98 172.25,157.25 C176.94,152.72 183.51,150.05 190.02,150.02 C194.73,150.00 196.09,150.45 199.28,153.08 C201.34,154.77 202.81,156.50 202.55,156.92 C202.30,157.33 198.41,157.09 193.92,156.37 C184.39,154.85 178.06,155.79 172.53,159.55 C170.59,160.86 169.00,161.59 169.00,161.17 ZM 286.95 150.97 C290.43,148.00 304.34,141.61 306.08,142.19 C307.29,142.60 286.72,154.01 284.89,153.96 C284.12,153.94 285.05,152.59 286.95,150.97 ZM 280.00 144.38 C280.00,142.17 285.34,136.25 291.68,131.44 C295.62,128.45 299.21,126.00 299.65,126.00 C300.68,126.00 286.37,140.52 282.75,143.14 C281.24,144.24 280.00,144.80 280.00,144.38 ZM 263.57 132.44 C262.38,127.70 264.07,122.87 268.47,118.48 C272.96,113.98 280.27,110.59 284.12,111.21 C286.33,111.57 286.25,111.71 283.00,113.15 C277.14,115.74 273.57,119.50 269.45,127.42 C267.28,131.59 265.21,135.00 264.86,135.00 C264.51,135.00 263.93,133.85 263.57,132.44 ZM 351.30 66.78 C349.24,64.56 346.39,56.28 347.35,55.32 C348.19,54.48 351.69,56.85 354.45,60.12 C359.14,65.69 356.15,72.02 351.30,66.78 ZM 363.28 61.74 C362.03,61.16 360.41,58.92 359.58,56.61 C356.00,46.61 356.45,45.95 362.83,51.85 C366.00,54.77 367.00,56.44 367.00,58.79 C367.00,62.48 366.24,63.09 363.28,61.74 Z" fill="rgb(254,254,254)"/>
</g>
</svg>